<?xml version="1.0" standalone="no"?>
<!DOCTYPE svg PUBLIC "-//W3C//DTD SVG 20010904//EN"
 "http://www.w3.org/TR/2001/REC-SVG-20010904/DTD/svg10.dtd">
<svg version="1.0" xmlns="http://www.w3.org/2000/svg"
 width="192" height="192" viewBox="0 0 184.000000 184.000000"
 preserveAspectRatio="xMidYMid meet">
<metadata>
Created by potrace 1.10, written by Peter Selinger 2001-2011
</metadata>
<g transform="translate(0.000000,184.000000) scale(0.050000,-0.050000)"
fill="#FFFFFF" stroke="none">
<path d="M1200 3350 c-27 -16 -41 -29 -30 -31 11 -1 0 -10 -24 -19 -81 -33
-115 -131 -78 -228 44 -116 40 -157 -21 -214 -85 -78 -228 -280 -214 -303 7
-12 4 -16 -7 -9 -92 57 -216 -532 -190 -898 l19 -263 107 -207 c252 -486 841
-783 1286 -648 124 38 211 38 240 1 35 -47 125 -53 175 -12 l44 35 -68 23
c-76 25 -138 95 -169 191 -26 79 -80 89 -147 25 -156 -149 -519 -107 -950 111
-151 75 -147 71 -336 467 -21 45 -37 117 -35 160 1 44 1 165 -2 269 -4 174 22
336 62 390 8 11 34 73 58 136 47 126 227 355 316 403 30 16 90 60 134 98 l80
69 -145 142 c-80 78 -145 151 -145 162 0 57 320 -30 447 -123 47 -34 98 -55
119 -50 20 6 65 -2 100 -16 35 -14 122 -32 192 -40 128 -14 170 -31 451 -189
132 -75 291 -246 291 -314 0 -13 14 -35 31 -49 17 -14 28 -39 25 -57 -3 -18
10 -65 30 -106 34 -71 55 -194 58 -336 1 -88 -44 -278 -103 -432 -65 -168 -68
-173 -133 -209 -39 -22 -61 -52 -68 -95 -12 -73 -163 -215 -210 -197 -41 16
-38 39 15 96 137 148 344 551 384 748 12 60 -7 124 -91 300 -21 45 -38 93 -38
106 0 57 -38 -4 -60 -97 -13 -56 -35 -100 -50 -100 -45 0 -48 51 -7 142 22 48
35 104 30 124 -8 29 -4 32 18 13 75 -62 118 38 52 123 -20 27 -42 64 -49 83
-7 19 -30 35 -52 35 -22 0 -44 16 -51 35 -22 68 -201 145 -223 96 -24 -54 -88
-67 -88 -16 0 20 -11 48 -24 61 -19 19 -12 24 30 24 143 0 -2 87 -185 112 -86
11 -105 9 -97 -14 5 -15 32 -31 61 -34 28 -4 56 -22 63 -40 16 -44 56 -111 92
-154 16 -19 29 -68 30 -109 1 -42 16 -90 34 -108 47 -47 6 -453 -46 -453 -10
0 -18 -23 -18 -50 0 -28 -8 -66 -18 -85 -98 -185 -112 -225 -77 -225 16 0 26
-32 27 -89 1 -51 18 -112 40 -145 53 -79 88 -163 88 -213 0 -24 18 -55 40 -68
22 -14 40 -44 40 -66 0 -56 51 -150 121 -223 32 -34 69 -92 83 -129 35 -97 66
-71 69 59 3 106 9 120 127 264 68 83 126 162 129 176 11 53 36 93 52 84 25
-16 158 366 166 480 2 22 12 46 23 54 29 21 22 328 -8 364 -13 16 -22 41 -19
56 3 14 -6 47 -20 73 -15 25 -21 51 -16 57 6 6 -11 55 -38 108 -27 54 -50 105
-51 113 0 8 -14 22 -29 31 -16 9 -29 32 -29 51 0 43 -89 167 -107 149 -7 -7
-13 0 -13 16 -2 74 -382 275 -753 397 -373 123 -429 142 -472 164 -53 26 -219
19 -275 -13z m1162 -745 c1 -8 5 -40 10 -70 5 -30 1 -71 -10 -91 -34 -63 5
-97 72 -64 82 42 98 47 82 30 -8 -8 -6 -32 5 -52 19 -36 -82 -76 -156 -61 -30
6 -34 -69 -5 -87 11 -7 20 -3 20 9 0 11 14 21 30 21 40 0 39 -116 -1 -169 -16
-21 -24 -55 -18 -75 7 -20 2 -36 -10 -36 -11 0 -21 -14 -21 -31 0 -22 12 -28
37 -20 26 8 48 -3 71 -38 46 -70 73 -65 52 10 -18 63 12 99 58 70 11 -7 35 16
52 50 18 34 43 58 56 53 32 -11 19 -78 -20 -108 -28 -22 -25 -27 21 -45 59
-22 68 -63 23 -101 -16 -14 -30 -37 -30 -52 0 -16 -12 -28 -28 -28 -15 0 -39
-15 -55 -34 -23 -29 -23 -32 5 -22 17 7 43 5 57 -3 16 -10 3 -19 -37 -25 -41
-6 -62 -1 -62 16 0 27 -75 59 -94 41 -59 -59 -61 -271 -2 -273 25 0 42 88 19
96 -33 11 -28 75 7 104 37 30 98 -10 82 -53 -6 -15 0 -27 12 -27 13 0 7 -12
-14 -27 -20 -15 -39 -41 -41 -58 -13 -89 -74 -256 -107 -298 -60 -72 -73 -6
-23 111 63 146 49 198 -30 111 -36 -39 -38 -40 -52 -5 -23 58 -19 202 6 210
12 4 22 34 22 66 0 33 15 70 33 84 27 21 27 25 2 26 -16 0 -55 45 -85 100
l-54 99 49 50 c63 62 63 87 0 111 -56 21 -65 73 -21 131 36 47 39 97 8 147
-19 30 -15 51 21 109 25 40 39 81 32 93 -7 11 -3 20 9 20 11 0 22 -7 23 -15z
m-52 -930 c-7 -25 -25 -72 -40 -105 -16 -33 -33 -85 -39 -115 -17 -82 -71 -71
-71 14 0 113 74 251 134 251 20 0 25 -14 16 -45z"/>
<path d="M1700 2881 c0 -9 19 -21 42 -27 37 -10 41 -24 37 -118 -9 -177 -2
-233 23 -190 13 23 16 83 8 155 -14 116 14 170 43 84 30 -90 58 -145 74 -145
34 0 -9 -224 -51 -268 l-41 -42 12 53 c7 29 19 69 26 88 12 30 9 30 -30 -3
-50 -43 -51 -55 -21 -257 l23 -151 68 60 c75 65 139 81 119 28 -7 -17 -12 -44
-12 -60 0 -15 -13 -28 -30 -28 -16 0 -30 -10 -30 -22 0 -13 18 -18 40 -12 54
14 50 -19 -11 -99 -60 -79 -89 -85 -89 -19 0 105 -44 148 -70 67 -16 -53 -41
26 -58 185 -37 352 -69 436 -111 286 -28 -103 -26 -138 9 -173 35 -35 70 -121
69 -169 0 -21 -15 -8 -36 32 -39 74 -63 66 -63 -21 0 -41 12 -62 39 -69 21 -5
48 -36 59 -68 11 -32 33 -58 49 -58 15 0 39 -26 52 -58 23 -54 28 -56 86 -35
47 18 63 17 70 -2 15 -46 45 -26 45 31 0 30 12 73 27 95 56 80 79 240 51 349
-34 134 -93 121 -66 -15 9 -47 2 -59 -52 -82 -90 -39 -110 -7 -50 82 66 96 64
143 -2 60 -28 -36 -60 -65 -70 -65 -25 0 19 85 55 106 15 9 27 25 27 36 0 12
23 50 50 86 64 84 63 91 -20 172 -38 37 -70 78 -70 91 0 12 -16 37 -35 54 -41
36 -185 80 -185 56z"/>
<path d="M1596 2815 c21 -36 45 -90 52 -120 12 -50 52 -79 52 -38 0 43 -83
200 -112 211 -26 10 -24 1 8 -53z"/>
<path d="M1435 2702 c-43 -46 -49 -60 -25 -69 43 -17 37 -88 -9 -112 -37 -20
-208 -217 -288 -331 -21 -30 -45 -46 -54 -37 -34 35 35 173 146 292 117 125
135 155 90 155 -41 0 -235 -205 -235 -248 0 -15 -14 -39 -31 -53 -17 -14 -26
-37 -21 -51 5 -14 2 -28 -8 -32 -25 -8 -27 -130 -4 -221 16 -62 14 -75 -10
-75 -16 0 -25 -11 -21 -25 5 -14 2 -45 -7 -70 -17 -46 -5 -105 21 -105 8 0 44
43 81 95 67 95 334 389 364 402 44 18 4 -57 -104 -194 -66 -84 -127 -162 -135
-173 -9 -11 -36 -46 -61 -79 -25 -32 -74 -76 -108 -96 -49 -30 -57 -42 -34
-56 15 -10 18 -19 6 -19 -12 0 -21 -13 -21 -29 0 -16 5 -26 12 -22 7 5 22 -23
33 -60 19 -59 17 -70 -13 -79 -28 -9 -32 -24 -19 -76 41 -169 171 -319 261
-301 47 10 57 4 62 -36 5 -33 22 -49 57 -54 28 -3 59 -15 69 -25 29 -28 134
-22 128 7 -11 50 106 195 156 195 27 0 53 14 60 30 14 37 87 39 134 5 33 -24
31 -34 -21 -150 -67 -148 -112 -167 -95 -40 8 58 6 76 -7 57 -12 -16 -38 -23
-62 -17 -30 8 -49 -1 -65 -32 -13 -24 -35 -50 -50 -59 -82 -48 170 -125 327
-100 103 17 255 112 193 122 -30 4 -40 17 -33 43 5 20 -5 64 -22 98 -18 33
-32 79 -32 102 0 23 -10 41 -22 41 -12 0 -49 23 -82 50 -32 28 -81 50 -108 50
-49 0 -67 -30 -25 -44 13 -5 19 -21 14 -36 -8 -22 -19 -18 -48 16 -22 25 -61
44 -92 44 -59 0 -117 46 -117 91 0 16 -18 40 -40 54 -23 14 -40 46 -40 75 1
39 5 44 20 20 10 -16 39 -31 64 -33 25 -2 66 -10 91 -17 27 -9 45 -6 45 7 0
12 -33 27 -73 35 -48 9 -76 27 -82 52 -7 26 -23 36 -47 30 -46 -12 -52 10 -56
241 -2 115 5 185 18 185 11 0 20 10 20 22 0 12 22 40 49 61 31 24 49 58 48 93
0 30 1 134 3 231 2 136 -5 185 -29 212 -17 19 -31 49 -31 68 0 48 -23 41 -85
-25z m-203 -551 c-50 -61 -100 -129 -112 -151 -23 -42 -69 -53 -89 -21 -11 17
49 93 236 299 88 98 58 -13 -35 -127z m108 -294 c0 -62 -167 -357 -202 -357
-61 0 -45 58 62 225 92 143 140 189 140 132z m2 -325 c-20 -24 -17 -27 20 -17
79 20 -36 -309 -132 -380 -81 -59 -82 52 -1 157 39 52 71 101 71 111 0 31 -58
18 -78 -18 -14 -26 -25 -29 -42 -13 -40 40 39 175 110 189 73 14 83 9 52 -29z
m229 -294 c8 -12 2 -30 -13 -39 -22 -14 -22 -25 0 -65 26 -49 -14 -154 -59
-154 -29 0 -41 73 -20 127 24 63 -7 73 -39 13 -49 -91 -113 -27 -66 66 15 30
23 63 16 73 -6 10 5 27 24 38 36 20 130 -15 157 -59z m449 -234 c0 -40 -98
-144 -136 -144 -40 0 -27 35 38 109 69 79 98 89 98 35z"/>
<path d="M1540 1989 c-39 -102 -47 -156 -21 -140 14 9 44 -4 72 -30 60 -56 62
-43 7 50 -36 61 -37 71 -10 71 18 0 32 -10 32 -23 0 -13 6 -18 13 -11 16 17
-32 134 -56 134 -10 0 -27 -23 -37 -51z"/>
<path d="M1671 1920 c8 -60 17 -128 19 -149 4 -46 97 -122 126 -103 35 21 -50
263 -88 249 -9 -4 -21 11 -25 33 -18 100 -46 74 -32 -30z"/>
<path d="M1520 1744 c0 -52 66 -108 108 -92 31 12 31 16 -2 52 -60 66 -106 84
-106 40z"/>
<path d="M1882 1722 c-30 -30 -37 -53 -25 -77 9 -19 31 -65 50 -102 33 -67 48
-157 17 -108 -12 18 -34 19 -93 3 -42 -12 -116 -16 -164 -9 -56 9 -87 6 -87
-8 0 -11 34 -21 75 -22 41 0 116 -9 165 -18 59 -12 99 -10 116 4 18 15 33 11
55 -17 33 -42 23 44 -14 116 -9 18 -17 53 -17 77 0 25 -16 56 -35 71 -30 22
-31 32 -9 69 37 59 16 71 -34 21z"/>
<path d="M1650 1600 c-7 -11 9 -20 37 -20 77 0 122 -22 90 -43 -22 -14 -22
-20 3 -36 41 -27 59 -1 46 64 -11 57 -146 84 -176 35z"/>
</g>
</svg>
