<?xml version="1.0" standalone="no"?>
<!DOCTYPE svg PUBLIC "-//W3C//DTD SVG 20010904//EN"
 "http://www.w3.org/TR/2001/REC-SVG-20010904/DTD/svg10.dtd">
<svg version="1.0" xmlns="http://www.w3.org/2000/svg"
 width="512" height="512" viewBox="0 0 300.000000 300.000000"
 preserveAspectRatio="xMidYMid meet">
<metadata>
Created by potrace 1.10, written by Peter Selinger 2001-2011
</metadata>
<g transform="translate(0.000000,300.000000) scale(0.100000,-0.100000)"
fill="#FFFFFF" stroke="none">
<path d="M945 2975 c-5 -2 -27 -6 -48 -10 -22 -3 -53 -19 -70 -35 -18 -16 -49
-44 -69 -62 -26 -23 -41 -47 -50 -80 -11 -43 -9 -56 16 -143 18 -63 25 -106
21 -125 -4 -17 -38 -64 -79 -109 -89 -97 -186 -238 -186 -270 0 -16 -4 -21
-14 -18 -56 22 -124 -167 -171 -470 -23 -156 -29 -357 -15 -553 l12 -174 65
-126 c87 -165 156 -268 243 -362 216 -234 504 -385 795 -417 109 -13 223 -3
340 29 147 39 196 36 258 -16 27 -22 38 -26 82 -22 45 4 115 39 115 58 0 3
-24 14 -52 24 -68 23 -146 101 -172 171 -36 95 -75 115 -137 70 -118 -85 -178
-105 -312 -105 -168 0 -402 65 -643 180 -178 84 -195 103 -314 341 -71 144
-101 214 -109 261 -14 81 -14 426 -1 538 16 126 21 139 135 385 60 130 206
308 310 378 33 22 95 69 138 105 l78 65 -150 152 c-83 84 -151 156 -151 159 0
4 11 11 24 16 56 21 318 -59 417 -127 70 -48 105 -63 148 -63 23 0 78 -11 123
-24 46 -13 123 -29 172 -35 49 -7 109 -19 135 -27 58 -20 275 -133 361 -189
125 -81 235 -199 265 -285 9 -25 25 -54 36 -66 11 -11 24 -45 29 -75 4 -30 18
-75 30 -102 52 -116 69 -354 36 -502 -25 -113 -89 -304 -131 -391 -29 -60 -43
-78 -79 -99 -50 -29 -67 -52 -84 -111 -14 -47 -103 -151 -154 -178 -40 -22
-88 -16 -88 11 0 8 24 46 53 82 136 168 284 441 358 662 43 130 39 166 -39
348 -34 79 -62 152 -62 162 0 22 -13 25 -28 7 -5 -7 -22 -52 -36 -100 -28 -90
-43 -112 -70 -102 -24 9 -20 59 15 158 17 49 29 100 26 113 -2 13 -2 22 2 21
75 -39 94 -34 99 28 2 32 -7 54 -46 119 -43 70 -54 82 -90 93 -23 8 -42 18
-42 22 0 5 -12 23 -26 40 -30 35 -103 75 -156 85 -32 6 -40 3 -60 -20 -46 -53
-88 -53 -88 -1 0 12 -7 31 -15 42 -21 28 -18 34 18 34 18 0 42 6 52 14 18 13
17 15 -15 35 -54 33 -157 62 -242 68 -66 5 -78 3 -78 -9 0 -9 15 -21 33 -28
17 -6 42 -16 55 -21 13 -5 31 -23 40 -40 9 -17 31 -54 49 -82 59 -95 62 -105
74 -179 6 -40 19 -86 29 -103 26 -43 34 -134 20 -255 -13 -125 -33 -197 -60
-222 -13 -12 -20 -32 -20 -57 0 -24 -16 -70 -46 -132 -25 -52 -52 -111 -59
-131 -13 -34 -12 -38 8 -51 17 -11 22 -28 28 -92 7 -69 15 -93 64 -187 32 -62
58 -127 62 -154 4 -34 16 -58 44 -90 26 -30 41 -60 49 -97 12 -61 46 -119 121
-210 28 -33 65 -89 81 -124 47 -98 61 -86 74 62 3 44 12 94 19 110 6 17 48 76
93 132 113 142 148 192 162 236 6 21 22 45 35 53 13 8 34 38 48 67 35 74 106
298 123 387 8 41 22 86 32 100 24 36 22 284 -3 350 -9 25 -20 63 -25 85 -5 22
-16 57 -24 77 -9 21 -16 47 -16 59 0 32 -87 220 -116 250 -14 14 -29 42 -35
62 -13 48 -69 130 -96 142 -12 5 -27 21 -33 35 -16 35 -82 85 -212 157 -158
88 -351 168 -658 272 -146 49 -303 103 -350 120 -63 23 -102 30 -150 30 -36 0
-69 -2 -75 -4z m1108 -821 c4 -21 6 -61 2 -89 -13 -116 -12 -120 17 -123 14
-2 49 8 77 22 28 14 52 26 53 26 2 0 4 -20 6 -45 2 -41 0 -46 -30 -61 -17 -9
-57 -17 -87 -18 -56 -2 -56 -2 -59 -34 -2 -19 2 -40 9 -48 10 -13 14 -12 31 6
24 26 34 25 49 -1 15 -30 6 -99 -20 -149 -11 -22 -21 -58 -21 -79 0 -26 -5
-41 -16 -45 -9 -3 -14 -15 -12 -28 2 -19 8 -22 35 -20 32 3 42 -3 90 -61 13
-15 27 -27 33 -27 5 0 8 29 7 68 l-2 67 40 0 c33 0 42 5 63 35 36 54 53 69 68
63 22 -8 16 -59 -11 -91 -30 -36 -31 -49 -6 -57 29 -9 71 -45 71 -60 0 -8 -13
-29 -29 -47 -16 -18 -30 -42 -32 -53 -3 -11 -18 -26 -34 -34 -34 -16 -65 -40
-65 -52 0 -4 15 -5 34 -2 33 5 62 -13 34 -21 -55 -17 -68 -16 -98 14 -32 31
-71 47 -90 35 -23 -14 -42 -72 -47 -144 -5 -84 9 -126 42 -126 16 0 21 8 23
41 2 27 -2 45 -13 54 -8 7 -15 23 -15 35 0 28 36 75 59 75 29 0 62 -30 59 -53
-1 -12 1 -28 6 -35 5 -9 -1 -23 -19 -42 -17 -18 -32 -52 -45 -101 -36 -147
-113 -301 -141 -284 -17 11 -9 60 26 160 19 55 35 108 35 118 0 28 -33 20 -70
-18 -19 -19 -37 -35 -41 -35 -14 0 -29 74 -29 144 0 50 5 77 19 100 10 17 22
53 26 79 3 27 15 57 26 68 18 18 18 19 -24 62 -23 24 -58 73 -77 109 l-34 66
48 51 c56 61 57 85 6 114 -19 11 -38 24 -42 31 -15 22 -7 72 17 111 29 47 32
100 8 150 l-17 36 38 74 c21 41 36 81 33 89 -3 8 -3 17 1 20 13 14 27 -2 35
-40z m-53 -905 c0 -11 -15 -57 -34 -102 -18 -45 -41 -107 -50 -138 -19 -66
-39 -80 -62 -43 -46 70 49 304 123 304 17 0 23 -6 23 -21z"/>
<path d="M1374 2469 c-3 -5 10 -16 29 -24 19 -8 37 -22 41 -30 3 -9 6 -82 6
-161 0 -136 8 -175 26 -121 4 12 8 78 8 146 1 143 13 163 45 76 30 -80 60
-135 73 -135 15 0 4 -130 -17 -198 -14 -47 -74 -132 -75 -107 0 6 9 39 20 74
11 36 17 67 15 70 -9 9 -63 -51 -70 -76 -6 -26 32 -333 43 -345 4 -4 34 15 66
42 61 50 111 76 121 60 3 -4 2 -29 -2 -55 -5 -41 -10 -50 -35 -59 -40 -15 -36
-36 7 -36 40 0 44 -13 19 -61 -20 -40 -83 -109 -99 -109 -15 0 -25 31 -25 81
0 21 -8 47 -19 60 l-19 24 -19 -32 c-10 -18 -21 -33 -25 -33 -13 0 -28 75 -53
270 -40 307 -65 363 -105 234 -27 -89 -26 -139 4 -178 35 -47 64 -107 71 -151
l6 -40 -23 27 c-13 15 -30 37 -39 49 -23 34 -39 15 -39 -47 0 -52 2 -56 35
-76 23 -13 45 -39 61 -70 15 -29 35 -53 50 -58 14 -6 33 -24 42 -41 9 -17 24
-41 33 -52 17 -21 18 -21 70 -4 53 17 54 17 68 -3 27 -39 51 -16 51 50 0 14
15 57 34 95 18 39 39 94 45 123 23 109 9 233 -35 299 -16 25 -17 26 -30 8 -10
-13 -12 -37 -8 -85 7 -74 3 -80 -65 -104 -81 -29 -90 -2 -31 94 60 97 53 119
-15 47 -29 -33 -59 -56 -64 -52 -15 9 23 81 54 101 14 9 28 27 31 40 3 12 26
51 50 85 24 35 44 74 44 87 0 16 -21 47 -61 90 -34 36 -67 79 -74 96 -17 39
-50 71 -97 90 -54 23 -117 35 -124 25z"/>
<path d="M1240 2450 c0 -5 15 -42 34 -82 19 -40 41 -90 50 -110 9 -22 23 -38
32 -38 29 0 0 84 -65 187 -25 41 -51 63 -51 43z"/>
<path d="M1107 2292 c-26 -26 -47 -52 -47 -58 0 -6 9 -19 20 -29 36 -33 25
-59 -62 -147 -46 -46 -121 -131 -167 -188 -118 -149 -121 -152 -134 -147 -21
7 -19 46 6 101 30 65 80 134 176 241 67 75 87 115 57 115 -40 0 -200 -161
-238 -240 -12 -25 -32 -60 -45 -78 -12 -18 -19 -40 -16 -48 3 -8 -2 -23 -12
-34 -15 -17 -17 -32 -11 -117 3 -54 9 -116 12 -139 5 -35 3 -42 -14 -46 -17
-5 -20 -18 -27 -92 -5 -63 -3 -91 5 -101 17 -20 27 -11 103 89 138 181 376
433 385 407 7 -20 -54 -109 -209 -309 -109 -140 -159 -197 -206 -231 -61 -45
-74 -63 -52 -76 7 -5 4 -14 -7 -26 -16 -18 -16 -20 -1 -37 22 -24 47 -86 47
-115 0 -16 -9 -28 -25 -35 -32 -15 -32 -41 -2 -125 31 -84 66 -143 117 -195
47 -50 78 -64 139 -66 45 -1 48 -4 69 -57 8 -20 22 -29 58 -38 26 -7 56 -19
68 -27 21 -14 82 -19 110 -8 9 3 16 16 16 28 0 52 110 180 164 192 17 3 44 18
59 32 51 48 157 23 157 -37 0 -41 -101 -235 -124 -240 -17 -3 -18 2 -14 67 l5
70 -56 -5 c-45 -4 -61 -10 -79 -31 -12 -15 -34 -39 -47 -54 -35 -38 -31 -53
18 -76 66 -31 156 -45 259 -40 80 4 102 9 158 37 101 51 120 74 75 91 -21 8
-25 16 -25 52 0 24 -11 70 -25 103 -13 33 -25 70 -25 82 0 27 -13 39 -104 100
-70 46 -129 63 -156 43 -13 -9 -12 -13 8 -27 23 -16 31 -53 11 -53 -6 0 -26
13 -45 30 -18 16 -51 32 -71 35 -21 4 -50 11 -66 17 -32 12 -77 62 -77 85 0 9
-18 35 -40 59 -28 31 -40 52 -40 74 0 16 5 30 10 30 6 0 10 -4 10 -10 0 -15
33 -28 115 -45 54 -11 81 -13 88 -6 11 11 -32 33 -90 46 -30 6 -66 38 -76 68
-2 6 -18 10 -35 9 -48 -4 -55 23 -56 241 -1 170 1 189 17 198 9 6 17 15 17 22
0 6 21 33 48 60 l47 48 3 229 3 228 -30 58 c-17 31 -31 65 -31 75 0 31 -23 22
-73 -29z m-142 -449 c-20 -48 -30 -62 -127 -192 -44 -58 -88 -112 -98 -119
-22 -16 -60 -7 -60 13 0 18 64 101 175 227 102 115 138 138 110 71z m25 -460
c-19 -58 -107 -223 -149 -279 -38 -51 -76 -68 -87 -40 -12 32 119 263 196 346
40 42 58 30 40 -27z m23 -269 c3 -4 -1 -17 -10 -30 -15 -23 -14 -24 11 -24 15
0 29 -7 33 -16 17 -46 -85 -300 -144 -356 -34 -32 -62 -38 -76 -16 -17 26 6
85 73 183 32 49 57 92 54 97 -11 17 -53 7 -72 -17 -45 -57 -78 -8 -44 67 24
54 70 98 114 108 44 11 54 11 61 4z m171 -297 c54 -31 65 -50 42 -76 -13 -15
-17 -28 -11 -48 16 -65 16 -99 -2 -132 -55 -106 -106 -26 -67 107 10 36 -21
27 -46 -12 -21 -35 -51 -53 -70 -41 -15 9 -12 86 5 115 8 14 14 39 15 56 0 16
5 35 12 42 19 19 79 14 122 -11z m513 -263 c20 -52 -134 -200 -161 -155 -13
20 114 171 144 171 6 0 13 -7 17 -16z"/>
<path d="M1203 1544 c-14 -31 -28 -76 -31 -100 -4 -39 -3 -42 15 -38 13 4 36
-7 66 -30 26 -20 47 -31 47 -25 0 6 -16 40 -36 75 -32 57 -34 65 -18 71 11 4
23 -1 36 -16 l18 -23 0 24 c0 29 -40 111 -58 116 -7 2 -23 -20 -39 -54z"/>
<path d="M1336 1555 c-3 -9 1 -68 9 -132 16 -122 29 -149 83 -185 30 -20 58
-23 67 -8 19 31 -59 233 -94 245 -14 4 -25 20 -32 51 -12 46 -23 55 -33 29z"/>
<path d="M1184 1306 c-7 -19 21 -71 48 -90 28 -20 62 -21 77 -2 9 10 0 23 -39
60 -50 47 -76 57 -86 32z"/>
<path d="M1558 1273 c-40 -44 -39 -56 2 -142 38 -78 63 -151 56 -159 -2 -2
-13 2 -24 9 -17 10 -36 10 -102 0 -51 -9 -109 -11 -155 -7 -49 5 -76 3 -80 -4
-11 -18 -1 -21 97 -31 224 -21 247 -22 263 -9 13 11 20 9 40 -10 14 -13 28
-20 32 -17 6 7 -11 73 -36 142 -6 17 -13 46 -16 66 -3 20 -17 49 -30 63 -28
31 -31 50 -10 86 8 14 14 28 15 33 0 16 -28 5 -52 -20z"/>
<path d="M1350 1171 c-14 -4 -26 -14 -28 -22 -2 -13 10 -17 53 -22 71 -7 92
-22 69 -48 -14 -16 -14 -18 6 -29 12 -6 28 -9 36 -6 16 6 19 58 4 85 -16 30
-95 54 -140 42z"/>
</g>
</svg>
